<?xml version="1.0" encoding="utf-8"?>
<!-- Generator: Adobe Illustrator 22.0.0, SVG Export Plug-In . SVG Version: 6.00 Build 0)  -->
<svg version="1.1" id="Capa_1" xmlns="http://www.w3.org/2000/svg" xmlns:xlink="http://www.w3.org/1999/xlink" x="0px" y="0px"
	 viewBox="0 0 512 512" style="enable-background:new 0 0 512 512;" xml:space="preserve">
<style type="text/css">
	.st0{fill:#F1FAEE;}
</style>
<g>
	<g id="Page-1_2_">
		<g id="_x30_03---Chat-Bot-Message" transform="translate(0 -1)">
			<path id="Shape_20_" class="st0" d="M426.7,134.1V76.7c16.6-4.3,27.5-20.3,25.3-37.3S435.3,9.5,418.1,9.5s-31.7,12.8-33.9,29.8
				s8.7,33.1,25.3,37.3v45.1C363.8,92.4,310.4,77.2,256,77.9c-54.4-0.7-107.8,14.5-153.6,43.9V76.7c16.6-4.3,27.5-20.3,25.3-37.3
				S111.1,9.5,93.9,9.5S62.2,22.3,60,39.3c-2.2,17.1,8.7,33.1,25.3,37.3v57.5C31.2,176.3-0.4,241.2,0,309.8
				c0,127.4,88.5,194.7,256,194.7s256-67.3,256-194.7C512.4,241.2,480.8,176.3,426.7,134.1L426.7,134.1z M401.1,43.7
				c0-9.4,7.6-17.1,17.1-17.1s17.1,7.6,17.1,17.1s-7.6,17.1-17.1,17.1S401.1,53.2,401.1,43.7z M76.8,43.7c0-9.4,7.6-17.1,17.1-17.1
				s17.1,7.6,17.1,17.1s-7.6,17.1-17.1,17.1S76.8,53.2,76.8,43.7z M256,487.5c-109,0-238.9-30.8-238.9-177.6
				C17.1,187.3,119.8,94.9,256,94.9s238.9,92.4,238.9,214.9C494.9,456.6,365,487.5,256,487.5z"/>
			<path id="Shape_19_" class="st0" d="M375.5,180.3H136.5c-33,0-59.7,26.8-59.7,59.7v102.4c0,33,26.8,59.7,59.7,59.7
				c4.7,0,8.5,3.8,8.5,8.5v34.1c0,3.2,1.8,6.2,4.7,7.6c2.9,1.4,6.3,1.1,8.9-0.8l63.7-47.8c1.5-1.1,3.3-1.7,5.1-1.7h147.9
				c33,0,59.7-26.8,59.7-59.7V240C435.2,207,408.4,180.3,375.5,180.3L375.5,180.3z M418.1,342.4c0,23.6-19.1,42.6-42.7,42.7H227.6
				c-5.5,0-10.9,1.8-15.4,5.1l-50.1,37.5v-17.1c0-14.1-11.5-25.6-25.6-25.6c-23.6,0-42.6-19.1-42.7-42.7V240
				c0-23.6,19.1-42.6,42.7-42.7h238.9c23.6,0,42.6,19.1,42.7,42.7L418.1,342.4z"/>
			<path id="Shape_18_" class="st0" d="M384,240H128c-4.7,0-8.5,3.8-8.5,8.5c0,4.7,3.8,8.5,8.5,8.5h256c4.7,0,8.5-3.8,8.5-8.5
				C392.5,243.8,388.7,240,384,240z"/>
			<path id="Shape_17_" class="st0" d="M128,299.7h85.3c4.7,0,8.5-3.8,8.5-8.5s-3.8-8.5-8.5-8.5H128c-4.7,0-8.5,3.8-8.5,8.5
				S123.3,299.7,128,299.7L128,299.7z"/>
			<path id="Shape_16_" class="st0" d="M341.3,325.3H128c-4.7,0-8.5,3.8-8.5,8.5c0,4.7,3.8,8.5,8.5,8.5h213.3c4.7,0,8.5-3.8,8.5-8.5
				C349.9,329.2,346,325.3,341.3,325.3L341.3,325.3z"/>
		</g>
	</g>
</g>
</svg>
