<?xml version="1.0" encoding="utf-8"?>
<!-- Generator: Adobe Illustrator 22.0.0, SVG Export Plug-In . SVG Version: 6.00 Build 0)  -->
<svg version="1.1" id="Capa_1" xmlns="http://www.w3.org/2000/svg" xmlns:xlink="http://www.w3.org/1999/xlink" x="0px" y="0px"
	 viewBox="0 0 512 512" style="enable-background:new 0 0 512 512;" xml:space="preserve">
<style type="text/css">
	.st0{fill:#F1FAEE;}
</style>
<g>
	<g id="Page-1_22_">
		<g id="_x30_23---Bot-Loading" transform="translate(-1 -1)">
			<path id="Shape_175_" class="st0" d="M163.2,180.3c-70.7,0-128,57.3-128,128s57.3,128,128,128h187.7c70.7,0,128-57.3,128-128
				s-57.3-128-128-128H163.2z M461.7,308.3c-0.1,61.2-49.7,110.8-110.9,110.9H163.2c-61.3,0-110.9-49.7-110.9-110.9
				s49.7-110.9,110.9-110.9h187.7C412.1,197.4,461.7,247,461.7,308.3L461.7,308.3z"/>
			<path id="Shape_174_" class="st0" d="M231.4,163.2h51.2c4.7,0,8.5-3.8,8.5-8.5c0-4.7-3.8-8.5-8.5-8.5h-51.2
				c-4.7,0-8.5,3.8-8.5,8.5C222.9,159.4,226.7,163.2,231.4,163.2L231.4,163.2z"/>
			<path id="Shape_173_" class="st0" d="M248.5,137.6h17.1c4.7,0,8.5-3.8,8.5-8.5c0-4.7-3.8-8.5-8.5-8.5h-17.1
				c-4.7,0-8.5,3.8-8.5,8.5C239.9,133.8,243.8,137.6,248.5,137.6z"/>
			<path id="Shape_172_" class="st0" d="M461.7,50.8c11.8-4.2,18.8-16.2,16.7-28.5C476.3,10,465.7,1,453.2,1
				c-12.5,0-23.1,9-25.2,21.3c-2.1,12.3,4.9,24.3,16.7,28.5v35.8C397.7,31.9,329.1,0.6,257,1.1C184.9,0.6,116.3,31.9,69.3,86.6V50.7
				C81.1,46.6,88.1,34.6,86,22.3C83.9,10,73.3,1,60.8,1s-23.1,9-25.2,21.3c-2.1,12.3,4.9,24.3,16.7,28.5v57.7
				c-34.1,50.5-52,110.2-51.2,171.1C1.1,432.3,89.6,513,257,513s255.9-80.7,255.9-233.4c0.8-60.9-17-120.6-51.2-171.1V50.8z
				 M453.2,18.2c4.7,0,8.5,3.8,8.5,8.5s-3.8,8.5-8.5,8.5c-4.7,0-8.5-3.8-8.5-8.5S448.5,18.2,453.2,18.2z M60.8,18.2
				c4.7,0,8.5,3.8,8.5,8.5s-3.8,8.5-8.5,8.5s-8.5-3.8-8.5-8.5S56.1,18.2,60.8,18.2z M257,495.9c-109,0-238.9-37.5-238.9-216.4
				c0-149,102.7-261.4,238.9-261.4s238.9,112.4,238.9,261.4C495.9,458.4,366,495.9,257,495.9z"/>
			<path id="Shape_171_" class="st0" d="M69.3,308.3c0,28.3,22.9,51.2,51.2,51.2h273c28.3,0,51.2-22.9,51.2-51.2
				c0-28.3-22.9-51.2-51.2-51.2h-273C92.2,257.1,69.3,280,69.3,308.3L69.3,308.3z M325.2,342.4h-19l19-31.7V342.4z M325.2,277.5
				l-39,64.9h-22.8l40.9-68.2h20.8L325.2,277.5z M243.6,342.4h-22.8l40.9-68.2h22.8L243.6,342.4z M201,342.4h-22.8l40.9-68.2h22.8
				L201,342.4z M158.3,342.4h-22.8l40.9-68.2h22.8L158.3,342.4z M115.9,341.9c-6.7-0.9-12.9-3.7-17.9-8.2l35.8-59.6h22.8
				L115.9,341.9z M113.5,274.9l-25.7,42.8c-0.9-3-1.4-6.2-1.5-9.4C86.4,292.1,97.7,278.2,113.5,274.9L113.5,274.9z M427.6,308.3
				c0,18.8-15.3,34.1-34.1,34.1h-51.2v-68.2h51.2C412.3,274.1,427.6,289.4,427.6,308.3z"/>
		</g>
	</g>
</g>
</svg>
