<?xml version="1.0" encoding="utf-8"?>
<!-- Generator: Adobe Illustrator 22.0.0, SVG Export Plug-In . SVG Version: 6.00 Build 0)  -->
<svg version="1.1" id="Capa_1" xmlns="http://www.w3.org/2000/svg" xmlns:xlink="http://www.w3.org/1999/xlink" x="0px" y="0px"
	 viewBox="0 0 512 512" style="enable-background:new 0 0 512 512;" xml:space="preserve">
<style type="text/css">
	.st0{fill:#F1FAEE;}
</style>
<g>
	<g id="Page-1_4_">
		<g id="_x30_05---Chat-Bot" transform="translate(0 -1)">
			<path id="Shape_34_" class="st0" d="M145.1,197.3c-56.5,0-102.4,45.8-102.4,102.4s45.8,102.4,102.4,102.4h221.8
				c56.5,0,102.4-45.8,102.4-102.4s-45.8-102.4-102.4-102.4L145.1,197.3z M452.2,299.7c-0.1,47.1-38.2,85.3-85.3,85.3H145.1
				c-47.1,0-85.3-38.2-85.3-85.3s38.2-85.3,85.3-85.3h221.8C414,214.5,452.2,252.6,452.2,299.7z"/>
			<path id="Shape_33_" class="st0" d="M145.1,240c-23.6,0-42.7,19.1-42.7,42.7s19.1,42.7,42.7,42.7s42.7-19.1,42.7-42.7
				C187.7,259.1,168.6,240,145.1,240L145.1,240z M145.1,308.3c-14.1,0-25.6-11.5-25.6-25.6s11.5-25.6,25.6-25.6
				c14.1,0,25.6,11.5,25.6,25.6S159.2,308.3,145.1,308.3z"/>
			<path id="Shape_32_" class="st0" d="M324.2,282.7c0,23.6,19.1,42.7,42.7,42.7c23.6,0,42.7-19.1,42.7-42.7S390.5,240,366.9,240
				C343.4,240,324.3,259.1,324.2,282.7z M392.5,282.7c0,14.1-11.5,25.6-25.6,25.6c-14.1,0-25.6-11.5-25.6-25.6s11.5-25.6,25.6-25.6
				C381,257.1,392.5,268.5,392.5,282.7z"/>
			<path id="Shape_31_" class="st0" d="M426.6,125.6V68.2c16.6-4.3,27.5-20.3,25.3-37.3C449.8,13.8,435.3,1,418.1,1
				s-31.7,12.8-33.9,29.8c-2.2,17,8.7,33,25.3,37.3v45.1C363.8,83.9,310.4,68.7,256,69.4c-54.4-0.7-107.8,14.5-153.6,43.9V68.2
				c16.6-4.3,27.5-20.3,25.3-37.3C125.6,13.8,111.1,1,93.9,1S62.2,13.8,60.1,30.8c-2.2,17,8.7,33,25.3,37.3v57.5
				c-54.2,42.1-85.7,107-85.3,175.7c0,52.4,15.3,95.2,45.4,127c2.1,2.5,2.7,5.9,1.4,8.9c-7.2,19.5-22.4,34.9-41.7,42.4
				c-2.9,1.2-4.8,3.9-5.1,7.1s1.2,6.1,3.8,7.9c19.4,11.9,41.7,18.3,64.5,18.5c26.2-1.1,51.3-10.9,71.5-27.7c2.1-1.7,4.9-2.3,7.5-1.5
				c35.6,8.6,72.1,12.7,108.7,12.2c167.4,0,255.9-67.3,255.9-194.7C512.3,232.7,480.8,167.7,426.6,125.6L426.6,125.6z M401,35.3
				c0-9.4,7.6-17.1,17.1-17.1s17.1,7.6,17.1,17.1s-7.6,17.1-17.1,17.1S401,44.7,401,35.3z M76.8,35.3c0-9.4,7.6-17.1,17.1-17.1
				S111,25.8,111,35.3s-7.6,17.1-17.1,17.1S76.8,44.7,76.8,35.3z M256,478.9c-35.2,0.5-70.3-3.5-104.4-11.7
				c-7.9-2.1-16.4-0.2-22.7,5c-17.1,14.2-38.3,22.6-60.5,23.8c-14.2-0.2-28.2-3.1-41.2-8.7c16.6-10.3,29.3-26,35.9-44.4
				c3.5-9.1,1.5-19.3-5.1-26.4c-27-28.5-40.7-67.3-40.7-115.2C17.1,178.8,119.8,86.4,256,86.4s238.9,92.4,238.9,214.8
				C494.9,448.1,365,478.9,256,478.9L256,478.9z"/>
			<path id="Shape_30_" class="st0" d="M281.6,299.7h-51.2c-9.4,0-17.1,7.6-17.1,17.1v8.5c0,23.6,19.1,42.7,42.7,42.7
				s42.7-19.1,42.7-42.7v-8.5C298.7,307.4,291,299.7,281.6,299.7z M281.6,325.3c0,14.1-11.5,25.6-25.6,25.6s-25.6-11.5-25.6-25.6
				v-8.5h51.2V325.3z"/>
			<path id="Shape_29_" class="st0" d="M221.9,180.3h68.2c4.7,0,8.5-3.8,8.5-8.5c0-4.7-3.8-8.5-8.5-8.5h-68.2
				c-4.7,0-8.5,3.8-8.5,8.5C213.3,176.5,217.2,180.3,221.9,180.3z"/>
			<path id="Shape_28_" class="st0" d="M247.5,146.2h17.1c4.7,0,8.5-3.8,8.5-8.5c0-4.7-3.8-8.5-8.5-8.5h-17.1
				c-4.7,0-8.5,3.8-8.5,8.5C238.9,142.3,242.8,146.2,247.5,146.2L247.5,146.2z"/>
		</g>
	</g>
</g>
</svg>
