<?xml version="1.0" encoding="utf-8"?>
<!-- Generator: Adobe Illustrator 22.0.0, SVG Export Plug-In . SVG Version: 6.00 Build 0)  -->
<svg version="1.1" id="Capa_1" xmlns="http://www.w3.org/2000/svg" xmlns:xlink="http://www.w3.org/1999/xlink" x="0px" y="0px"
	 viewBox="0 0 512 512" style="enable-background:new 0 0 512 512;" xml:space="preserve">
<style type="text/css">
	.st0{fill:#F1FAEE;}
	.st1{fill:#66C6B9;}
</style>
<g>
	<g id="Page-1_25_">
		<g id="_x30_26---Bot-Hi" transform="translate(0 -1)">
			<path id="Shape_156_" class="st0" d="M53,27.6c-0.1,11.2-7.1,21.1-17.7,24.9v19c-6.9,9.3-12.8,19.2-17.7,29.7V52.4
				C5,48-2.3,34.6,0.7,21.5S16.2-0.4,29.6,1.2S53,14.1,53,27.6z"/>
			<path id="Shape_155_" class="st0" d="M353.1,27.6c-0.1,11.2-7.1,21.1-17.7,24.9v48.7c-4.8-10.5-10.8-20.5-17.7-29.7v-19
				c-12.7-4.5-20-17.8-17-30.9s15.5-21.9,28.8-20.3C343,2.7,353.1,14.1,353.1,27.6z"/>
			<path id="Shape_154_" class="st0" d="M287.4,290.6c31.9-22.4,48-58.6,48-107.4c0-93.8-68.3-164.5-158.9-164.5
				S17.7,89.5,17.7,183.3c0,90,53.5,135.6,158.9,135.6C223.7,318.8,261,309.3,287.4,290.6z M167.7,54h17.7c4.9,0,8.8,4,8.8,8.8
				s-4,8.8-8.8,8.8h-17.7c-4.9,0-8.8-4-8.8-8.8S162.9,54,167.7,54z M158.9,80.5h35.3c4.9,0,8.8,4,8.8,8.8s-4,8.8-8.8,8.8h-35.3
				c-4.9,0-8.8-4-8.8-8.8S154,80.5,158.9,80.5z M35.3,195.3c0.1-48.7,39.5-88.2,88.3-88.3h105.9c48.7,0,88.3,39.5,88.3,88.3
				s-39.5,88.3-88.3,88.3H123.6C74.9,283.5,35.4,244,35.3,195.3z"/>
			<path id="Shape_153_" class="st0" d="M158.9,354.1c0,9.7,7.9,17.7,17.7,17.7c9.7,0,17.7-7.9,17.7-17.7v-17.7H159L158.9,354.1
				L158.9,354.1z"/>
			<circle id="Oval_44_" class="st0" cx="106" cy="186.4" r="8.8"/>
			<circle id="Oval_43_" class="st0" cx="247.2" cy="186.4" r="8.8"/>
			<path id="Shape_152_" class="st0" d="M300.1,195.3c0-39-31.6-70.6-70.6-70.6H123.6c-39,0-70.6,31.6-70.6,70.6
				s31.6,70.6,70.6,70.6h105.9C268.5,265.8,300.1,234.2,300.1,195.3L300.1,195.3z M106,212.9c-14.6,0-26.5-11.9-26.5-26.5
				s11.9-26.5,26.5-26.5s26.5,11.9,26.5,26.5S120.6,212.9,106,212.9z M209.3,228c-9,7.8-20.8,11.9-32.7,11.4
				c-12,0.5-23.7-3.6-32.7-11.4c-3.2-3.5-3.1-8.8,0.2-12.1s8.6-3.5,12.1-0.4c5.8,4.5,13,6.7,20.4,6.3c7.3,0.4,14.5-1.9,20.3-6.3
				c3.5-3.3,9-3.2,12.4,0.3C212.7,219.1,212.7,224.6,209.3,228z M220.7,186.4c0-14.6,11.9-26.5,26.5-26.5
				c14.6,0,26.5,11.9,26.5,26.5s-11.9,26.5-26.5,26.5S220.7,201.1,220.7,186.4z"/>
			<path id="Shape_151_" class="st1" d="M485.5,354.1H353.1c-1.8,0-3.6-0.6-5.1-1.6l-47.8-34.2v27c0,4.9-4,8.8-8.8,8.8
				c-14.6,0-26.5,11.9-26.5,26.5v105.9c0,14.6,11.9,26.5,26.5,26.5h194.2c14.6,0,26.5-11.9,26.5-26.5V380.6
				C512,366,500.1,354.1,485.5,354.1L485.5,354.1z M388.4,477.7c0,4.9-4,8.8-8.8,8.8c-4.9,0-8.8-4-8.8-8.8v-35.3h-35.3v35.3
				c0,4.9-4,8.8-8.8,8.8c-4.9,0-8.8-4-8.8-8.8v-88.3c0-4.9,4-8.8,8.8-8.8c4.9,0,8.8,4,8.8,8.8v35.3h35.3v-35.3c0-4.9,4-8.8,8.8-8.8
				c4.9,0,8.8,4,8.8,8.8V477.7z M450.2,468.9c4.9,0,8.8,4,8.8,8.8c0,4.9-4,8.8-8.8,8.8h-35.3c-4.9,0-8.8-4-8.8-8.8
				c0-4.9,4-8.8,8.8-8.8h8.8v-70.6h-8.8c-4.9,0-8.8-4-8.8-8.8c0-4.9,4-8.8,8.8-8.8h35.3c4.9,0,8.8,4,8.8,8.8c0,4.9-4,8.8-8.8,8.8
				h-8.8v70.6H450.2z"/>
			<path id="Shape_150_" class="st0" d="M158.9,513h35.3c9.7,0,17.7-7.9,17.7-17.7h-70.6C141.3,505.1,149.2,513,158.9,513z"/>
			<path id="Shape_149_" class="st0" d="M211.9,336.5v17.7c0,19.5-15.8,35.3-35.3,35.3s-35.3-15.8-35.3-35.3v-17.7H120
				c-10,0-19.6,4.3-26.3,11.8c-6.7,7.5-9.9,17.5-8.8,27.4l6.4,57.9H150c4.9,0,8.8,4,8.8,8.8s-4,8.8-8.8,8.8H93.8
				c4,15.6,18,26.5,34.1,26.5h97.4c8,0,15.7-2.8,21.9-7.9v-18.6H203c-4.9,0-8.8-4-8.8-8.8s4-8.8,8.8-8.8h44.1v-53
				c0-11.7,4.8-23,13.1-31.2c-6.7-8.2-16.6-12.9-27.2-13h-21.1V336.5z"/>
		</g>
	</g>
</g>
</svg>
