<?xml version="1.0" encoding="utf-8"?>
<!-- Generator: Adobe Illustrator 22.0.0, SVG Export Plug-In . SVG Version: 6.00 Build 0)  -->
<svg version="1.1" id="Capa_1" xmlns="http://www.w3.org/2000/svg" xmlns:xlink="http://www.w3.org/1999/xlink" x="0px" y="0px"
	 viewBox="0 0 512 512" style="enable-background:new 0 0 512 512;" xml:space="preserve">
<style type="text/css">
	.st0{fill:#F1FAEE;}
	.st1{fill:#E9C46A;}
</style>
<g>
	<g id="Page-1_19_">
		<g id="_x30_20---Loading-Bot" transform="translate(-1 -1)">
			<path id="Shape_153_" class="st0" d="M163.2,180.3c-70.7,0-128,57.3-128,128s57.3,128,128,128h187.7c70.7,0,128-57.3,128-128
				s-57.3-128-128-128H163.2z M461.7,308.3c-0.1,61.2-49.7,110.8-110.9,110.9H163.2c-61.3,0-110.9-49.7-110.9-110.9
				s49.7-110.9,110.9-110.9h187.7C412.1,197.4,461.7,247,461.7,308.3L461.7,308.3z"/>
			<path id="Shape_152_" class="st0" d="M231.4,163.2h51.2c4.7,0,8.5-3.8,8.5-8.5c0-4.7-3.8-8.5-8.5-8.5h-51.2
				c-4.7,0-8.5,3.8-8.5,8.5C222.9,159.4,226.7,163.2,231.4,163.2L231.4,163.2z"/>
			<path id="Shape_151_" class="st0" d="M248.5,137.6h17.1c4.7,0,8.5-3.8,8.5-8.5c0-4.7-3.8-8.5-8.5-8.5h-17.1
				c-4.7,0-8.5,3.8-8.5,8.5C239.9,133.8,243.8,137.6,248.5,137.6z"/>
			<path id="Shape_150_" class="st0" d="M461.7,50.8c11.8-4.2,18.8-16.2,16.7-28.5C476.3,10,465.7,1,453.2,1
				c-12.5,0-23.1,9-25.2,21.3c-2.1,12.3,4.9,24.3,16.7,28.5v35.8C397.7,31.9,329.1,0.6,257,1.1C184.9,0.6,116.3,31.9,69.3,86.6V50.7
				C81.1,46.6,88.1,34.6,86,22.3C83.9,10,73.3,1,60.8,1s-23.1,9-25.2,21.3c-2.1,12.3,4.9,24.3,16.7,28.5v57.7
				c-34.1,50.5-52,110.2-51.2,171.1C1.1,432.3,89.6,513,257,513s255.9-80.7,255.9-233.4c0.8-60.9-17-120.6-51.2-171.1V50.8z
				 M453.2,18.2c4.7,0,8.5,3.8,8.5,8.5s-3.8,8.5-8.5,8.5c-4.7,0-8.5-3.8-8.5-8.5S448.5,18.2,453.2,18.2z M60.8,18.2
				c4.7,0,8.5,3.8,8.5,8.5s-3.8,8.5-8.5,8.5s-8.5-3.8-8.5-8.5S56.1,18.2,60.8,18.2z M257,495.9c-109,0-238.9-37.5-238.9-216.4
				c0-149,102.7-261.4,238.9-261.4s238.9,112.4,238.9,261.4C495.9,458.4,366,495.9,257,495.9z"/>
			<path id="Shape_149_" class="st1" d="M137.6,222.9c-4.7,0-8.5,3.8-8.5,8.5v17.1c0,4.7,3.8,8.5,8.5,8.5c4.7,0,8.5-3.8,8.5-8.5
				v-17.1C146.1,226.8,142.3,222.9,137.6,222.9z"/>
			<path id="Shape_148_" class="st1" d="M161.7,267.1c2.3,0,4.4-0.9,6-2.5l12.1-12.1c2.2-2.1,3.1-5.3,2.3-8.3
				c-0.8-3-3.1-5.3-6.1-6.1c-3-0.8-6.2,0.1-8.3,2.3l-12.1,12.1c-2.4,2.4-3.2,6.1-1.8,9.3C155.1,265,158.2,267.1,161.7,267.1
				L161.7,267.1z"/>
			<path id="Shape_147_" class="st1" d="M188.8,274.1h-17.1c-4.7,0-8.5,3.8-8.5,8.5s3.8,8.5,8.5,8.5h17.1c4.7,0,8.5-3.8,8.5-8.5
				S193.5,274.1,188.8,274.1z"/>
			<path id="Shape_146_" class="st1" d="M167.7,300.8c-3.3-3.2-8.7-3.2-12,0.1c-3.3,3.3-3.3,8.6-0.1,12l12.1,12.1
				c3.3,3.2,8.7,3.2,12-0.1c3.3-3.3,3.3-8.6,0.1-12L167.7,300.8z"/>
			<path id="Shape_145_" class="st1" d="M137.6,308.3c-4.7,0-8.5,3.8-8.5,8.5v17.1c0,4.7,3.8,8.5,8.5,8.5c4.7,0,8.5-3.8,8.5-8.5
				v-17.1C146.1,312.1,142.3,308.3,137.6,308.3z"/>
			<path id="Shape_144_" class="st1" d="M107.4,300.8l-12.1,12.1c-2.2,2.1-3.1,5.3-2.3,8.3c0.8,3,3.1,5.3,6.1,6.1s6.2-0.1,8.3-2.3
				l12.1-12.1c2.2-2.1,3.1-5.3,2.3-8.3c-0.8-3-3.1-5.3-6.1-6.1S109.6,298.5,107.4,300.8z"/>
			<path id="Shape_143_" class="st1" d="M112,282.7c0-4.7-3.8-8.5-8.5-8.5H86.4c-4.7,0-8.5,3.8-8.5,8.5s3.8,8.5,8.5,8.5h17.1
				C108.2,291.2,112,287.4,112,282.7z"/>
			<path id="Shape_142_" class="st1" d="M107.4,240.4c-2.1-2.2-5.3-3.1-8.3-2.3s-5.3,3.1-6.1,6.1c-0.8,3,0.1,6.2,2.3,8.3l12.1,12.1
				c2.1,2.2,5.3,3.1,8.3,2.3s5.3-3.1,6.1-6.1s-0.1-6.2-2.3-8.3L107.4,240.4z"/>
			<path id="Shape_141_" class="st1" d="M376.4,257.1c4.7,0,8.5-3.8,8.5-8.5v-17.1c0-4.7-3.8-8.5-8.5-8.5c-4.7,0-8.5,3.8-8.5,8.5
				v17.1C367.9,253.3,371.7,257.1,376.4,257.1z"/>
			<path id="Shape_140_" class="st1" d="M400.6,267.1c2.3,0,4.4-0.9,6-2.5l12.1-12.1c2.2-2.1,3.1-5.3,2.3-8.3
				c-0.8-3-3.1-5.3-6.1-6.1s-6.2,0.1-8.3,2.3l-12.1,12.1c-2.4,2.4-3.2,6.1-1.8,9.3C394,265,397.1,267.1,400.6,267.1L400.6,267.1z"/>
			<path id="Shape_139_" class="st1" d="M402,282.7c0,4.7,3.8,8.5,8.5,8.5h17.1c4.7,0,8.5-3.8,8.5-8.5s-3.8-8.5-8.5-8.5h-17.1
				C405.8,274.1,402,278,402,282.7z"/>
			<path id="Shape_138_" class="st1" d="M406.6,324.9c3.3,3.2,8.7,3.2,12-0.1c3.3-3.3,3.3-8.6,0.1-12l-12.1-12.1
				c-3.3-3.2-8.7-3.2-12,0.1c-3.3,3.3-3.3,8.6-0.1,12L406.6,324.9z"/>
			<path id="Shape_137_" class="st1" d="M376.4,342.4c4.7,0,8.5-3.8,8.5-8.5v-17.1c0-4.7-3.8-8.5-8.5-8.5c-4.7,0-8.5,3.8-8.5,8.5
				v17.1C367.9,338.6,371.7,342.4,376.4,342.4z"/>
			<path id="Shape_136_" class="st1" d="M346.3,300.8l-12.1,12.1c-2.2,2.1-3.1,5.3-2.3,8.3c0.8,3,3.1,5.3,6.1,6.1s6.2-0.1,8.3-2.3
				l12.1-12.1c3.2-3.3,3.2-8.7-0.1-12C354.9,297.6,349.6,297.5,346.3,300.8z"/>
			<path id="Shape_135_" class="st1" d="M350.8,282.7c0-4.7-3.8-8.5-8.5-8.5h-17.1c-4.7,0-8.5,3.8-8.5,8.5s3.8,8.5,8.5,8.5h17.1
				C347,291.2,350.8,287.4,350.8,282.7z"/>
			<path id="Shape_134_" class="st1" d="M334.2,240.4c-3.3,3.3-3.3,8.7,0,12.1l12.1,12.1c3.3,3.2,8.7,3.2,12-0.1
				c3.3-3.3,3.3-8.6,0.1-12l-12.1-12.1C342.9,237.1,337.5,237.1,334.2,240.4L334.2,240.4z"/>
			<path id="Shape_133_" class="st0" d="M293.7,353.4c-10.1,9.1-23.1,14.2-36.7,14.6c-13.6-0.4-26.6-5.5-36.7-14.6
				c-3.4-3.2-8.7-3.2-12,0.1c-3.3,3.3-3.3,8.6-0.1,12c13.3,12.3,30.6,19.2,48.7,19.6c18.1-0.3,35.4-7.3,48.7-19.6
				c3-3.4,2.9-8.5-0.3-11.7C302.2,350.5,297.1,350.4,293.7,353.4L293.7,353.4z"/>
		</g>
	</g>
</g>
</svg>
