<?xml version="1.0" encoding="utf-8"?>
<!-- Generator: Adobe Illustrator 22.0.0, SVG Export Plug-In . SVG Version: 6.00 Build 0)  -->
<svg version="1.1" id="Capa_1" xmlns="http://www.w3.org/2000/svg" xmlns:xlink="http://www.w3.org/1999/xlink" x="0px" y="0px"
	 viewBox="0 0 512 512" style="enable-background:new 0 0 512 512;" xml:space="preserve">
<style type="text/css">
	.st0{fill:#F1FAEE;}
</style>
<g>
	<g id="Page-1_28_">
		<g id="_x30_29---Bot-Error" transform="translate(0 -1)">
			<path id="Shape_179_" class="st0" d="M82.5,27.1c-0.1,11-7,20.8-17.4,24.5v23.2C59,81.3,53.2,88.2,47.8,95.3V51.6
				c-12.5-4.4-19.7-17.5-16.7-30.4s15.2-21.5,28.4-20S82.5,13.9,82.5,27.1z"/>
			<path id="Shape_178_" class="st0" d="M481.6,27.1c-0.1,11-7,20.8-17.4,24.5v43.7c-5.4-7.1-11.2-14-17.4-20.6V51.6
				c-12.5-4.4-19.7-17.5-16.7-30.4c3-12.9,15.2-21.5,28.3-20S481.6,13.9,481.6,27.1L481.6,27.1z"/>
			<path id="Shape_177_" class="st0" d="M256,9.8C117,9.8,4.4,124.1,4.4,284.2C4.4,455.8,117,513,256,513s251.6-57.2,251.6-228.8
				C507.6,124.1,395,9.8,256,9.8z M247.3,122.5h17.4c4.8,0,8.7,3.9,8.7,8.7c0,4.8-3.9,8.7-8.7,8.7h-17.4c-4.8,0-8.7-3.9-8.7-8.7
				C238.6,126.4,242.5,122.5,247.3,122.5z M230,148.6H282c4.8,0,8.7,3.9,8.7,8.7c0,4.8-3.9,8.7-8.7,8.7H230c-4.8,0-8.7-3.9-8.7-8.7
				C221.3,152.5,225.2,148.6,230,148.6z M351.4,443.6H160.6c-71.9,0-130.1-58.3-130.1-130.1s58.3-130.2,130.1-130.2h190.9
				c71.9,0,130.1,58.3,130.1,130.1S423.3,443.6,351.4,443.6z"/>
			<ellipse id="Oval_49_" class="st0" cx="256" cy="313.4" rx="34.7" ry="43.4"/>
			<path id="Shape_176_" class="st0" d="M351.4,200.6H160.6c-62.3,0-112.8,50.5-112.8,112.8s50.5,112.8,112.8,112.8h190.9
				c62.3,0,112.8-50.5,112.8-112.8S413.7,200.6,351.4,200.6L351.4,200.6z M177.9,330.8h-17.4v34.7c0,4.8-3.9,8.7-8.7,8.7
				c-4.8,0-8.7-3.9-8.7-8.7v-34.7h-26c-4.8,0-8.7-3.9-8.7-8.7v-60.7c0-4.8,3.9-8.7,8.7-8.7s8.7,3.9,8.7,8.7v52.1h17.4v-17.4
				c0-4.8,3.9-8.7,8.7-8.7c4.8,0,8.7,3.9,8.7,8.7v17.4h17.4c4.8,0,8.7,3.9,8.7,8.7C186.6,326.9,182.7,330.8,177.9,330.8z M256,374.2
				c-28.7,0-52.1-27.2-52.1-60.7s23.3-60.7,52.1-60.7s52.1,27.2,52.1,60.7S284.7,374.2,256,374.2z M394.8,330.8h-17.4v34.7
				c0,4.8-3.9,8.7-8.7,8.7s-8.7-3.9-8.7-8.7v-34.7h-26c-4.8,0-8.7-3.9-8.7-8.7v-60.7c0-4.8,3.9-8.7,8.7-8.7s8.7,3.9,8.7,8.7v52.1
				h17.4v-17.4c0-4.8,3.9-8.7,8.7-8.7s8.7,3.9,8.7,8.7v17.4h17.4c4.8,0,8.7,3.9,8.7,8.7C403.5,326.9,399.6,330.8,394.8,330.8z"/>
		</g>
	</g>
</g>
</svg>
