<?xml version="1.0" encoding="utf-8"?>
<!-- Generator: Adobe Illustrator 22.0.0, SVG Export Plug-In . SVG Version: 6.00 Build 0)  -->
<svg version="1.1" id="Capa_1" xmlns="http://www.w3.org/2000/svg" xmlns:xlink="http://www.w3.org/1999/xlink" x="0px" y="0px"
	 viewBox="0 0 512 512" style="enable-background:new 0 0 512 512;" xml:space="preserve">
<style type="text/css">
	.st0{fill:#F1FAEE;}
</style>
<g>
	<g id="Page-1_39_">
		<g id="_x30_40---Bot-Winking" transform="translate(0 -1)">
			<path id="Shape_253_" class="st0" d="M82.5,27.1c-0.1,11-7,20.8-17.4,24.5v23.2C59,81.3,53.2,88.2,47.8,95.3V51.6
				c-12.5-4.4-19.7-17.5-16.7-30.4s15.2-21.5,28.4-20S82.5,13.9,82.5,27.1z"/>
			<path id="Shape_252_" class="st0" d="M481.6,27.1c-0.1,11-7,20.8-17.4,24.5v43.7c-5.4-7.1-11.2-14-17.4-20.6V51.6
				c-12.5-4.4-19.7-17.5-16.7-30.4c3-12.9,15.2-21.5,28.3-20S481.6,13.9,481.6,27.1L481.6,27.1z"/>
			<path id="Shape_251_" class="st0" d="M256,9.8C117,9.8,4.4,124.1,4.4,284.2C4.4,455.8,117,513,256,513s251.6-57.2,251.6-228.8
				C507.6,124.1,395,9.8,256,9.8z M247.3,122.5h17.4c4.8,0,8.7,3.9,8.7,8.7c0,4.8-3.9,8.7-8.7,8.7h-17.4c-4.8,0-8.7-3.9-8.7-8.7
				C238.6,126.4,242.5,122.5,247.3,122.5z M230,148.6H282c4.8,0,8.7,3.9,8.7,8.7c0,4.8-3.9,8.7-8.7,8.7H230c-4.8,0-8.7-3.9-8.7-8.7
				C221.3,152.5,225.2,148.6,230,148.6z M351.4,443.6H160.6c-71.9,0-130.1-58.3-130.1-130.1s58.3-130.2,130.1-130.2h190.9
				c71.9,0,130.1,58.3,130.1,130.1S423.3,443.6,351.4,443.6z"/>
			<path id="Shape_250_" class="st0" d="M351.4,200.6H160.6c-62.3,0-112.8,50.5-112.8,112.8s50.5,112.8,112.8,112.8h190.9
				c62.3,0,112.8-50.5,112.8-112.8S413.7,200.6,351.4,200.6L351.4,200.6z M134.5,330.8c-24,0-43.4-19.4-43.4-43.4
				s19.4-43.4,43.4-43.4s43.4,19.4,43.4,43.4C177.9,311.4,158.5,330.8,134.5,330.8z M305.5,371.6c-13.5,12.5-31.1,19.6-49.5,19.9
				c-18.4-0.3-36-7.4-49.5-19.9c-3.3-3.4-3.3-8.8,0.1-12.2s8.8-3.4,12.2-0.1c10.3,9.2,23.5,14.5,37.3,14.8
				c13.8-0.4,27-5.6,37.3-14.8c3.4-3.3,8.8-3.2,12.2,0.1C308.8,362.8,308.8,368.2,305.5,371.6L305.5,371.6L305.5,371.6z
				 M398.7,305.7c4.3,2.1,6,7.4,3.9,11.6c-2.1,4.3-7.4,6-11.6,3.9l-52.1-26c-2.9-1.5-4.8-4.5-4.8-7.8s1.9-6.3,4.8-7.8l52.1-26
				c4.3-2.1,9.5-0.4,11.6,3.9c2.1,4.3,0.4,9.5-3.9,11.6l-36.5,18.2L398.7,305.7z"/>
			<circle id="Oval_69_" class="st0" cx="134.5" cy="287.4" r="26"/>
		</g>
	</g>
</g>
</svg>
