<svg id="Capa_1" enable-background="new 0 0 512.106 512.106" height="512" viewBox="0 0 512.106 512.106" width="512" xmlns="http://www.w3.org/2000/svg"><g><g id="Page-1_29_"><g id="_x30_30---Bot-Thanks" transform="translate(0 -1)"><path id="Shape_236_" d="m401.12 197.373c-.052-47.107-38.226-85.282-85.333-85.333h-119.467c-47.128 0-85.333 38.205-85.333 85.333s38.205 85.333 85.333 85.333h119.467c47.106-.052 85.281-38.226 85.333-85.333zm-273.067 0c.042-37.685 30.582-68.224 68.267-68.267h119.467c37.703 0 68.267 30.564 68.267 68.267s-30.564 68.267-68.267 68.267h-119.467c-37.685-.043-68.225-30.582-68.267-68.267z"/><path id="Shape_235_" d="m230.453 94.973h51.2c4.713 0 8.533-3.821 8.533-8.533 0-4.713-3.82-8.533-8.533-8.533h-51.2c-4.713 0-8.533 3.821-8.533 8.533s3.82 8.533 8.533 8.533z"/><path id="Shape_234_" d="m247.52 69.373h17.067c4.713 0 8.533-3.821 8.533-8.533s-3.82-8.533-8.533-8.533h-17.067c-4.713 0-8.533 3.821-8.533 8.533s3.82 8.533 8.533 8.533z"/><path id="Shape_233_" d="m179.253 163.239c-14.139 0-25.6 11.462-25.6 25.6s11.462 25.6 25.6 25.6 25.6-11.462 25.6-25.6-11.461-25.6-25.6-25.6zm0 34.134c-4.713 0-8.533-3.821-8.533-8.533s3.821-8.533 8.533-8.533c4.713 0 8.533 3.82 8.533 8.533s-3.82 8.533-8.533 8.533z"/><path id="Shape_232_" d="m358.453 188.839c0-10.354-6.237-19.689-15.803-23.651s-20.577-1.772-27.899 5.549c-7.322 7.322-9.512 18.333-5.549 27.899 3.962 9.566 13.297 15.803 23.651 15.803 14.139 0 25.6-11.461 25.6-25.6zm-34.133 0c0-4.713 3.821-8.533 8.533-8.533 4.713 0 8.533 3.82 8.533 8.533s-3.821 8.533-8.533 8.533c-4.713.001-8.533-3.82-8.533-8.533z"/><path id="Shape_231_" d="m275.722 225.379c-5.611 4.331-12.591 6.506-19.669 6.127-7.063.369-14.025-1.801-19.627-6.118-3.401-2.992-8.546-2.806-11.722.424s-3.274 8.378-.225 11.727c8.733 7.569 20.027 11.516 31.573 11.034 11.567.498 22.885-3.45 31.633-11.034 3.299-3.291 3.322-8.628.051-11.947-3.278-3.329-8.618-3.424-12.014-.213z"/><path id="Shape_230_" d="m85.386 359.506c-23.552.028-42.638 19.114-42.667 42.667v68.267c.028 23.552 19.114 42.638 42.667 42.667h341.334c23.552-.028 42.638-19.114 42.667-42.667v-68.267c-.028-23.552-19.114-42.638-42.667-42.667h-132.429l-1.707-2.15c93.38-11.213 142.669-66.731 142.669-161.519.351-36.014-8.458-71.527-25.6-103.202v-41.899c11.755-4.156 18.806-16.176 16.698-28.465s-12.763-21.271-25.231-21.271-23.123 8.982-25.231 21.271 4.943 24.309 16.698 28.465v16.29c-33.075-41.647-83.35-65.92-136.533-65.92s-103.459 24.273-136.534 65.92v-16.29c11.755-4.156 18.806-16.176 16.698-28.465s-12.764-21.271-25.232-21.271-23.123 8.982-25.231 21.271 4.943 24.309 16.698 28.465v41.899c-17.142 31.675-25.951 67.188-25.6 103.202 0 94.797 49.289 150.306 142.686 161.519l-1.707 2.15zm315.734-341.333c4.713 0 8.533 3.821 8.533 8.533s-3.82 8.533-8.533 8.533-8.533-3.821-8.533-8.533 3.82-8.533 8.533-8.533zm-290.134 0c4.713 0 8.533 3.821 8.533 8.533s-3.821 8.533-8.533 8.533c-4.713 0-8.533-3.821-8.533-8.533s3.821-8.533 8.533-8.533zm315.734 358.4c14.138 0 25.6 11.462 25.6 25.6v68.267c0 14.138-11.462 25.6-25.6 25.6h-341.334c-14.138 0-25.6-11.462-25.6-25.6v-68.267c0-14.138 11.462-25.6 25.6-25.6h132.437c5.186.012 10.093-2.348 13.321-6.409l24.909-31.138 24.909 31.13c3.225 4.063 8.133 6.427 13.321 6.417zm-332.8-180.736c0-101.282 69.7-177.664 162.133-177.664s162.133 76.382 162.133 177.664c0 89.429-46.609 138.359-138.342 145.613l-10.462-13.073c-3.341-3.881-8.208-6.113-13.329-6.113s-9.988 2.232-13.329 6.113l-10.462 13.073c-91.733-7.254-138.342-56.184-138.342-145.613z"/><path id="Shape_229_" d="m119.52 393.639h-34.134c-4.713 0-8.533 3.82-8.533 8.533s3.821 8.533 8.533 8.533h8.533v59.733c0 4.713 3.821 8.533 8.533 8.533s8.533-3.821 8.533-8.533v-59.733h8.533c4.713 0 8.533-3.82 8.533-8.533s-3.818-8.533-8.531-8.533z"/><path id="Shape_228_" d="m179.253 393.639c-4.713 0-8.533 3.82-8.533 8.533v25.6h-17.067v-25.6c0-4.713-3.821-8.533-8.533-8.533-4.713 0-8.533 3.82-8.533 8.533v68.267c0 4.713 3.821 8.533 8.533 8.533 4.713 0 8.533-3.821 8.533-8.533v-25.6h17.067v25.6c0 4.713 3.821 8.533 8.533 8.533 4.713 0 8.533-3.821 8.533-8.533v-68.267c0-4.712-3.82-8.533-8.533-8.533z"/><path id="Shape_227_" d="m221.92 393.639c-14.139 0-25.6 11.462-25.6 25.6v51.2c0 4.713 3.821 8.533 8.533 8.533 4.713 0 8.533-3.821 8.533-8.533v-25.6h17.067v25.6c0 4.713 3.821 8.533 8.533 8.533 4.713 0 8.533-3.821 8.533-8.533v-51.2c.001-14.138-11.461-25.6-25.599-25.6zm-8.534 34.134v-8.533c0-4.713 3.821-8.533 8.533-8.533 4.713 0 8.533 3.821 8.533 8.533v8.533z"/><path id="Shape_226_" d="m262.632 393.87c-3.853.907-6.578 4.344-6.579 8.303v68.267c0 4.713 3.82 8.533 8.533 8.533s8.533-3.821 8.533-8.533v-32.12l17.92 35.934c1.741 3.597 5.745 5.503 9.635 4.588s6.624-4.407 6.579-8.402v-68.267c0-4.713-3.821-8.533-8.533-8.533s-8.533 3.82-8.533 8.533v32.119l-17.92-35.934c-1.774-3.557-5.77-5.419-9.635-4.488z"/><path id="Shape_225_" d="m324.32 478.973c4.713 0 8.533-3.821 8.533-8.533v-13.534l19.567 19.567c3.348 3.234 8.671 3.188 11.962-.104 3.292-3.292 3.338-8.614.104-11.962l-28.1-28.1 28.1-28.1c3.234-3.348 3.188-8.671-.104-11.962-3.292-3.292-8.614-3.338-11.962-.104l-19.567 19.567v-13.534c0-4.713-3.82-8.533-8.533-8.533s-8.533 3.82-8.533 8.533v68.267c-.001 4.711 3.82 8.532 8.533 8.532z"/><path id="Shape_224_" d="m401.12 444.839c4.125-.003 7.661 2.944 8.401 7.002s-1.527 8.064-5.387 9.518-8.207-.062-10.327-3.6c-2.427-4.041-7.671-5.35-11.712-2.923s-5.35 7.671-2.923 11.712c6.366 10.605 19.404 15.142 30.978 10.78s18.374-16.376 16.157-28.544c-2.217-12.169-12.818-21.011-25.187-21.011-4.154-.003-7.702-2.997-8.404-7.091s1.646-8.099 5.562-9.486 8.261.247 10.292 3.871c1.433 2.773 4.265 4.542 7.385 4.614s6.03-1.566 7.589-4.269c1.559-2.704 1.517-6.043-.109-8.707-6.103-10.866-19.143-15.759-30.888-11.589-11.744 4.17-18.779 16.192-16.661 28.474 2.117 12.28 12.771 21.252 25.234 21.249z"/></g></g></g></svg>