<?xml version="1.0" encoding="utf-8"?>
<!-- Generator: Adobe Illustrator 22.0.0, SVG Export Plug-In . SVG Version: 6.00 Build 0)  -->
<svg version="1.1" id="Capa_1" xmlns="http://www.w3.org/2000/svg" xmlns:xlink="http://www.w3.org/1999/xlink" x="0px" y="0px"
	 viewBox="0 0 512 512" style="enable-background:new 0 0 512 512;" xml:space="preserve">
<style type="text/css">
	.st0{fill:#F1FAEE;}
</style>
<g>
	<g id="Page-1_43_">
		<g id="_x30_44---Chat-Bot" transform="translate(0 -1)">
			<path id="Shape_283_" class="st0" d="M132.4,27.6c-0.1,11.2-7.1,21.1-17.7,24.9v16.8c-6.6,8.3-12.5,17.2-17.7,26.5V52.4
				c-12.7-4.5-20-17.8-17-30.9C83.2,8.4,95.6-0.4,109,1.2S132.5,14.1,132.4,27.6z"/>
			<path id="Shape_282_" class="st0" d="M432.5,27.6c-0.1,11.2-7.1,21.1-17.7,24.9v43.2c-5.1-9.3-11-18.2-17.7-26.5V52.4
				c-12.7-4.5-20-17.8-17-30.9c3-13.1,15.5-21.9,28.8-20.3S432.6,14.1,432.5,27.6z"/>
			<circle id="Oval_75_" class="st0" cx="176.6" cy="195.3" r="8.8"/>
			<path id="Shape_281_" class="st0" d="M194.2,133.5c-39,0-70.6,31.6-70.6,70.6s31.6,70.6,70.6,70.6h123.6
				c39,0,70.6-31.6,70.6-70.6s-31.6-70.6-70.6-70.6L194.2,133.5z M176.6,221.7c-10.7,0-20.4-6.5-24.5-16.3
				c-4.1-9.9-1.8-21.3,5.7-28.9c7.6-7.6,19-9.8,28.9-5.7s16.3,13.8,16.3,24.5C203,209.9,191.2,221.7,176.6,221.7L176.6,221.7z
				 M288.7,245.6c-9,7.8-20.8,11.9-32.7,11.4c-12,0.5-23.7-3.6-32.7-11.4c-3.2-3.5-3.1-8.8,0.2-12.1c3.3-3.3,8.6-3.5,12.1-0.4
				c5.8,4.5,13,6.7,20.4,6.3c7.3,0.4,14.5-1.9,20.3-6.3c3.5-3.3,9-3.2,12.4,0.3C292.1,236.7,292.1,242.2,288.7,245.6L288.7,245.6z
				 M361.9,195.3c0,14.6-11.9,26.5-26.5,26.5c-14.6,0-26.5-11.9-26.5-26.5c0-14.6,11.9-26.5,26.5-26.5
				C350.1,168.8,361.9,180.6,361.9,195.3z"/>
			<path id="Shape_280_" class="st0" d="M256,18.7c-95.6,0-167.7,79-167.7,183.8c0,92.5,48.2,143.1,143.1,150.6l10.8-13.5
				c3.5-4,8.5-6.3,13.8-6.3s10.3,2.3,13.8,6.3l10.8,13.5c94.9-7.5,143.1-58.1,143.1-150.6C423.7,97.7,351.6,18.7,256,18.7L256,18.7z
				 M247.2,54h17.7c4.9,0,8.8,4,8.8,8.8c0,4.9-4,8.8-8.8,8.8h-17.7c-4.9,0-8.8-4-8.8-8.8S242.3,54,247.2,54z M229.5,80.5h53
				c4.9,0,8.8,4,8.8,8.8s-4,8.8-8.8,8.8h-53c-4.9,0-8.8-4-8.8-8.8S224.6,80.5,229.5,80.5z M406,204.1c-0.1,48.7-39.5,88.2-88.3,88.3
				H194.2c-48.7,0-88.3-39.5-88.3-88.3s39.5-88.3,88.3-88.3h123.6C366.5,115.9,406,155.4,406,204.1z"/>
			<circle id="Oval_74_" class="st0" cx="335.4" cy="195.3" r="8.8"/>
			<path id="Shape_279_" class="st0" d="M388.4,389.4h-92.9c-5.4,0-10.4-2.4-13.8-6.6L256,350.6l-25.8,32.2
				c-3.3,4.2-8.4,6.6-13.8,6.6h-92.9c-14.6,0-26.5,11.9-26.5,26.5v70.6c0,14.6,11.9,26.5,26.5,26.5h264.8
				c14.6,0,26.5-11.9,26.5-26.5v-70.6C414.9,401.3,403,389.4,388.4,389.4L388.4,389.4z M150.1,477.7h17.7c4.9,0,8.8,4,8.8,8.8
				c0,4.9-4,8.8-8.8,8.8h-17.7c-14.6,0-26.5-11.9-26.5-26.5v-35.3c0-14.6,11.9-26.5,26.5-26.5h17.7c4.9,0,8.8,4,8.8,8.8
				s-4,8.8-8.8,8.8h-17.7c-4.9,0-8.8,4-8.8,8.8v35.3C141.3,473.7,145.2,477.7,150.1,477.7z M247.2,486.5c0,4.9-4,8.8-8.8,8.8
				c-4.9,0-8.8-4-8.8-8.8V460h-17.7v26.5c0,4.9-4,8.8-8.8,8.8c-4.9,0-8.8-4-8.8-8.8v-70.6c0-4.9,4-8.8,8.8-8.8c4.9,0,8.8,4,8.8,8.8
				v26.5h17.7v-26.5c0-4.9,4-8.8,8.8-8.8c4.9,0,8.8,4,8.8,8.8V486.5z M317.8,486.5c0,4.9-4,8.8-8.8,8.8c-4.9,0-8.8-4-8.8-8.8V460
				h-17.7v26.5c0,4.9-4,8.8-8.8,8.8s-8.8-4-8.8-8.8v-53c0-14.6,11.9-26.5,26.5-26.5s26.5,11.9,26.5,26.5L317.8,486.5L317.8,486.5z
				 M379.6,424.7h-8.8v61.8c0,4.9-4,8.8-8.8,8.8c-4.9,0-8.8-4-8.8-8.8v-61.8h-8.8c-4.9,0-8.8-4-8.8-8.8s4-8.8,8.8-8.8h35.3
				c4.9,0,8.8,4,8.8,8.8S384.4,424.7,379.6,424.7z"/>
			<path id="Shape_278_" class="st0" d="M291.3,424.7c-4.9,0-8.8,4-8.8,8.8v8.8h17.7v-8.8C300.1,428.7,296.2,424.7,291.3,424.7z"/>
		</g>
	</g>
</g>
</svg>
